<?xml version="1.0" standalone="no"?><!DOCTYPE svg PUBLIC "-//W3C//DTD SVG 1.1//EN" "http://www.w3.org/Graphics/SVG/1.1/DTD/svg11.dtd"><svg t="1509692965614" class="icon" style="" viewBox="0 0 1024 1024" version="1.1" xmlns="http://www.w3.org/2000/svg" p-id="2612" xmlns:xlink="http://www.w3.org/1999/xlink" width="200" height="200"><defs><style type="text/css"></style></defs><path d="M976.682667 919.936l-176.085333-176.170667c61.397333-74.112 98.432-169.258667 98.432-272.896C898.986667 234.752 707.285333 42.666667 471.722667 42.666667 236.117333 42.666667 44.416 234.752 44.416 470.826667s191.701333 428.074667 427.306667 428.074667c101.461333 0 194.688-35.797333 268.117333-95.189333l176.512 176.554667L976.682667 919.936zM86.186667 470.826667c0-213.034667 172.928-386.346667 385.536-386.346667 212.522667 0 385.621333 173.312 385.621333 386.346667 0 212.992-173.098667 386.304-385.621333 386.304C259.114667 857.130667 86.186667 683.818667 86.186667 470.826667z" p-id="2613" fill="#bfbfbf"></path></svg>