<?xml version="1.0" standalone="no"?><!DOCTYPE svg PUBLIC "-//W3C//DTD SVG 1.1//EN" "http://www.w3.org/Graphics/SVG/1.1/DTD/svg11.dtd"><svg t="1509676185768" class="icon" style="" viewBox="0 0 1024 1024" version="1.1" xmlns="http://www.w3.org/2000/svg" p-id="1884" xmlns:xlink="http://www.w3.org/1999/xlink" width="200" height="200"><defs><style type="text/css"></style></defs><path d="M175.41497 175.070059 870.003386 175.070059 870.003386 661.281946 175.41497 661.281946 175.41497 175.070059 175.41497 175.070059ZM908.411345 35.195513 137.061469 35.195513C81.828911 35.195513 37.052975 80.075927 37.052975 135.439625L37.052975 699.432076C37.052975 754.795771 81.827793 799.676183 137.061469 799.676183L379.551744 799.676183 379.551744 938.03486 208.589638 938.034865C189.562368 938.034865 174.138042 953.459172 174.138042 972.486447 174.138042 991.513726 189.562368 1006.938033 208.589638 1006.938033L834.830522 1006.938033C853.857839 1006.938033 869.282118 991.513726 869.282118 972.486447 869.282118 953.459172 853.857839 938.034865 834.830522 938.034865L661.832471 938.034865 661.832471 799.676188 908.411345 799.676188C963.643904 799.676188 1008.41984 754.794659 1008.41984 699.432076L1008.41984 135.439625C1008.41984 80.077038 963.643904 35.195513 908.411345 35.195513L908.411345 35.195513ZM940.806935 731.325352 106.161757 731.325352 106.161757 106.314701 940.806935 106.314701 940.806935 731.325352 940.806935 731.325352Z" p-id="1885" fill="#35c599"></path></svg>